<mxfile host="app.diagrams.net" modified="2022-04-20T17:13:26.802Z" agent="5.0 (Macintosh; Intel Mac OS X 10_15_7) AppleWebKit/537.36 (KHTML, like Gecko) Chrome/100.0.4896.75 Safari/537.36" etag="WxUX66rmlkRR-OAieSbX" version="17.4.3" type="github">
  <diagram id="cBRvmcRlXSkIkJpSnEkT" name="Page-1">
    <mxGraphModel dx="946" dy="557" grid="1" gridSize="10" guides="1" tooltips="1" connect="1" arrows="1" fold="1" page="1" pageScale="1" pageWidth="827" pageHeight="1169" math="0" shadow="0">
      <root>
        <mxCell id="0" />
        <mxCell id="1" parent="0" />
        <mxCell id="Io_Ho50ToHb9_2NxYHPh-3" value="" style="edgeStyle=orthogonalEdgeStyle;rounded=0;orthogonalLoop=1;jettySize=auto;html=1;" edge="1" parent="1" source="Io_Ho50ToHb9_2NxYHPh-1" target="Io_Ho50ToHb9_2NxYHPh-2">
          <mxGeometry relative="1" as="geometry" />
        </mxCell>
        <mxCell id="Io_Ho50ToHb9_2NxYHPh-1" value="进入社团主页" style="rounded=0;whiteSpace=wrap;html=1;" vertex="1" parent="1">
          <mxGeometry x="350" y="50" width="120" height="60" as="geometry" />
        </mxCell>
        <mxCell id="Io_Ho50ToHb9_2NxYHPh-5" value="" style="edgeStyle=orthogonalEdgeStyle;rounded=0;orthogonalLoop=1;jettySize=auto;html=1;" edge="1" parent="1" source="Io_Ho50ToHb9_2NxYHPh-2" target="Io_Ho50ToHb9_2NxYHPh-4">
          <mxGeometry relative="1" as="geometry" />
        </mxCell>
        <mxCell id="Io_Ho50ToHb9_2NxYHPh-6" value="否" style="edgeLabel;html=1;align=center;verticalAlign=middle;resizable=0;points=[];" vertex="1" connectable="0" parent="Io_Ho50ToHb9_2NxYHPh-5">
          <mxGeometry x="-0.26" y="3" relative="1" as="geometry">
            <mxPoint as="offset" />
          </mxGeometry>
        </mxCell>
        <mxCell id="Io_Ho50ToHb9_2NxYHPh-8" value="" style="edgeStyle=orthogonalEdgeStyle;rounded=0;orthogonalLoop=1;jettySize=auto;html=1;" edge="1" parent="1" source="Io_Ho50ToHb9_2NxYHPh-2" target="Io_Ho50ToHb9_2NxYHPh-7">
          <mxGeometry relative="1" as="geometry" />
        </mxCell>
        <mxCell id="Io_Ho50ToHb9_2NxYHPh-11" value="是" style="edgeLabel;html=1;align=center;verticalAlign=middle;resizable=0;points=[];" vertex="1" connectable="0" parent="Io_Ho50ToHb9_2NxYHPh-8">
          <mxGeometry x="-0.42" y="1" relative="1" as="geometry">
            <mxPoint as="offset" />
          </mxGeometry>
        </mxCell>
        <mxCell id="Io_Ho50ToHb9_2NxYHPh-2" value="判断用户是否为社团成员" style="rhombus;whiteSpace=wrap;html=1;rounded=0;" vertex="1" parent="1">
          <mxGeometry x="280" y="150" width="260" height="60" as="geometry" />
        </mxCell>
        <mxCell id="Io_Ho50ToHb9_2NxYHPh-4" value="不显示新建文章的按钮" style="whiteSpace=wrap;html=1;rounded=0;" vertex="1" parent="1">
          <mxGeometry x="40" y="155" width="140" height="50" as="geometry" />
        </mxCell>
        <mxCell id="Io_Ho50ToHb9_2NxYHPh-10" value="" style="edgeStyle=orthogonalEdgeStyle;rounded=0;orthogonalLoop=1;jettySize=auto;html=1;" edge="1" parent="1" source="Io_Ho50ToHb9_2NxYHPh-7" target="Io_Ho50ToHb9_2NxYHPh-9">
          <mxGeometry relative="1" as="geometry" />
        </mxCell>
        <mxCell id="Io_Ho50ToHb9_2NxYHPh-7" value="显示新建文章按钮" style="whiteSpace=wrap;html=1;rounded=0;" vertex="1" parent="1">
          <mxGeometry x="350" y="260" width="120" height="60" as="geometry" />
        </mxCell>
        <mxCell id="Io_Ho50ToHb9_2NxYHPh-13" value="" style="edgeStyle=orthogonalEdgeStyle;rounded=0;orthogonalLoop=1;jettySize=auto;html=1;" edge="1" parent="1" source="Io_Ho50ToHb9_2NxYHPh-9" target="Io_Ho50ToHb9_2NxYHPh-12">
          <mxGeometry relative="1" as="geometry" />
        </mxCell>
        <mxCell id="Io_Ho50ToHb9_2NxYHPh-9" value="用户点击按钮之后跳转到文章编辑页&lt;br&gt;文章页的路由上携带对应社团信息" style="whiteSpace=wrap;html=1;rounded=0;" vertex="1" parent="1">
          <mxGeometry x="265" y="350" width="290" height="70" as="geometry" />
        </mxCell>
        <mxCell id="Io_Ho50ToHb9_2NxYHPh-15" value="" style="edgeStyle=orthogonalEdgeStyle;rounded=0;orthogonalLoop=1;jettySize=auto;html=1;" edge="1" parent="1" source="Io_Ho50ToHb9_2NxYHPh-12" target="Io_Ho50ToHb9_2NxYHPh-14">
          <mxGeometry relative="1" as="geometry" />
        </mxCell>
        <mxCell id="Io_Ho50ToHb9_2NxYHPh-16" value="否" style="edgeLabel;html=1;align=center;verticalAlign=middle;resizable=0;points=[];" vertex="1" connectable="0" parent="Io_Ho50ToHb9_2NxYHPh-15">
          <mxGeometry x="-0.6444" y="-2" relative="1" as="geometry">
            <mxPoint as="offset" />
          </mxGeometry>
        </mxCell>
        <mxCell id="Io_Ho50ToHb9_2NxYHPh-18" value="" style="edgeStyle=orthogonalEdgeStyle;rounded=0;orthogonalLoop=1;jettySize=auto;html=1;" edge="1" parent="1" source="Io_Ho50ToHb9_2NxYHPh-12" target="Io_Ho50ToHb9_2NxYHPh-17">
          <mxGeometry relative="1" as="geometry" />
        </mxCell>
        <mxCell id="Io_Ho50ToHb9_2NxYHPh-21" value="是" style="edgeLabel;html=1;align=center;verticalAlign=middle;resizable=0;points=[];" vertex="1" connectable="0" parent="Io_Ho50ToHb9_2NxYHPh-18">
          <mxGeometry x="-0.3333" y="1" relative="1" as="geometry">
            <mxPoint as="offset" />
          </mxGeometry>
        </mxCell>
        <mxCell id="Io_Ho50ToHb9_2NxYHPh-12" value="判断社团是否存在并且用户有权限进行新建文章的操作" style="rhombus;whiteSpace=wrap;html=1;rounded=0;" vertex="1" parent="1">
          <mxGeometry x="205" y="470" width="410" height="95" as="geometry" />
        </mxCell>
        <mxCell id="Io_Ho50ToHb9_2NxYHPh-14" value="重定向到主页" style="whiteSpace=wrap;html=1;rounded=0;" vertex="1" parent="1">
          <mxGeometry x="40" y="487.5" width="120" height="60" as="geometry" />
        </mxCell>
        <mxCell id="Io_Ho50ToHb9_2NxYHPh-20" value="" style="edgeStyle=orthogonalEdgeStyle;rounded=0;orthogonalLoop=1;jettySize=auto;html=1;" edge="1" parent="1" source="Io_Ho50ToHb9_2NxYHPh-17" target="Io_Ho50ToHb9_2NxYHPh-19">
          <mxGeometry relative="1" as="geometry" />
        </mxCell>
        <mxCell id="Io_Ho50ToHb9_2NxYHPh-17" value="进行文章编辑" style="whiteSpace=wrap;html=1;rounded=0;" vertex="1" parent="1">
          <mxGeometry x="350" y="610" width="120" height="60" as="geometry" />
        </mxCell>
        <mxCell id="Io_Ho50ToHb9_2NxYHPh-19" value="编辑完成后申请文章的发布&lt;br&gt;等待结果" style="whiteSpace=wrap;html=1;rounded=0;" vertex="1" parent="1">
          <mxGeometry x="280" y="710" width="260" height="50" as="geometry" />
        </mxCell>
      </root>
    </mxGraphModel>
  </diagram>
</mxfile>
